<?xml version="1.0" encoding="utf-8"?>
<?xml-stylesheet type="text/css" href="style.css"?>
<!-- Generator: Adobe Illustrator 14.0.0, SVG Export Plug-In . SVG Version: 6.00 Build 43363)  -->
<!DOCTYPE svg PUBLIC "-//W3C//DTD SVG 1.1//EN" "http://www.w3.org/Graphics/SVG/1.1/DTD/svg11.dtd">
<svg version="1.1" id="Layer_1" xmlns="http://www.w3.org/2000/svg" xmlns:xlink="http://www.w3.org/1999/xlink" viewBox="0.292 0.292 128 128">
<path d="M105.006,64.292v40.813H23.379V64.292H0.292c0-35.345,28.654-64,64-64c35.346,0,64,28.655,64,64H105.006z"/>
<path fill="#FFFFFF" class="lower" d="M101.952,64.292c0-13.656-7.27-25.615-18.149-32.218C72.92,38.677,65.667,50.482,65.667,64.292h36.287
	c0,13.732-7.354,25.742-18.33,32.32c-10.779-6.727-17.973-18.832-17.973-32.32h-1.359v37.662c-20.799,0-37.662-16.862-37.662-37.662
	h37.662v-37.66c-20.799,0-37.66,16.861-37.66,37.66H0.292c0,35.346,28.654,64,64,64c35.346,0,64-28.654,64-64H101.952z"/>
</svg>
