<svg xmlns="http://www.w3.org/2000/svg" version="1.1" viewBox="0.29 0.29 128 128">
  <path d="M105.01 64.29v40.81H23.38V64.29H0.29c0-35.34 28.65-64 64-64 35.35 0 64 28.66 64 64H105.01z"/>
  <path fill="#FFFFFF" class="lower" d="M101.95 64.29c0-13.66-7.27-25.61-18.15-32.22C72.92 38.68 65.67 50.48 65.67 64.29h36.29c0 13.73-7.35 25.74-18.33 32.32 -10.78-6.73-17.97-18.83-17.97-32.32h-1.36v37.66c-20.8 0-37.66-16.86-37.66-37.66h37.66v-37.66c-20.8 0-37.66 16.86-37.66 37.66H0.29c0 35.35 28.65 64 64 64 35.35 0 64-28.65 64-64H101.95z"/>
</svg>
